<svg width="246" height="278" viewBox="0 0 246 278" fill="none" xmlns="http://www.w3.org/2000/svg">
<path d="M143.63 163.06C143.63 158.36 140.53 154.36 139.13 149.86C127.63 110.76 110.03 136.56 112.33 113.96C114.23 95.5598 87.8299 86.6598 85.6299 94.6598C83.9299 101.06 75.5299 104.56 71.5299 99.1598C66.4299 92.3598 68.4299 82.6598 63.9299 75.5598C61.3299 71.4598 56.4299 68.5598 51.3299 68.1598C46.7299 67.7598 41.9299 69.1598 37.4299 67.9598C29.4299 65.7598 25.3299 56.1598 17.1299 55.0598C16.4299 54.9598 15.7299 54.9598 15.0299 55.2598C13.7299 55.7598 13.2299 57.2598 12.9299 58.5598C12.0299 62.0598 11.2299 65.9598 13.3299 68.9598C15.2299 71.6598 19.0299 72.7598 20.8299 75.4598C22.6299 78.1598 22.0299 81.7598 20.9299 84.7598C19.8299 87.7598 18.2299 90.8598 18.4299 94.0598C18.6299 98.6598 22.4299 102.66 26.8299 104.56C31.3299 106.56 36.3299 106.86 41.3299 106.86C42.6299 106.86 43.9299 106.86 45.1299 107.26C49.0299 108.56 49.9299 113.86 47.4299 116.96C46.4299 118.16 45.1299 119.16 44.4299 120.46C42.5299 123.96 45.9299 128.26 49.9299 129.46C53.9299 130.56 58.2299 129.66 62.4299 129.16C66.6299 128.66 71.3299 128.76 74.4299 131.36C78.3299 134.76 77.9299 140.56 80.2299 145.16C82.6299 150.06 88.1299 153.06 93.7299 154.36C99.3299 155.66 105.13 155.46 110.93 155.76C123.03 156.36 135.13 158.96 145.53 164.76" fill="#4DC591"/>
<path opacity="0.2" d="M41.8748 123.946C45.0748 134.846 54.9748 144.046 63.8748 151.246C73.2748 158.846 83.7748 165.146 94.3748 171.146C116.575 183.746 139.775 195.446 156.975 214.046C157.475 214.546 158.275 213.846 157.775 213.346C142.675 195.646 121.175 184.346 100.575 173.046C90.1748 167.246 79.6748 161.446 70.0748 154.446C59.2748 146.646 46.2748 136.446 42.2748 123.846C42.1748 123.646 41.7748 123.746 41.8748 123.946Z" fill="#444472"/>
<path d="M92.8469 191.902C90.7469 195.502 87.2469 198.002 83.8469 200.402C76.4469 205.502 68.6469 210.202 60.0469 212.702C57.8469 213.402 55.5469 213.902 53.2469 213.702C50.9469 213.502 48.6469 212.602 47.2469 210.702C45.3469 208.202 45.5469 204.702 45.1469 201.502C45.0469 200.502 44.7469 199.502 44.0469 198.802C42.3469 197.202 39.7469 198.702 37.9469 200.102C36.4469 201.302 34.9469 202.502 33.5469 203.702C31.7469 205.202 29.3469 206.702 27.1469 205.802C25.3469 205.002 24.5469 202.702 25.0469 200.802C25.5469 198.902 27.0469 197.402 28.6469 196.202C30.2469 195.102 32.1469 194.202 33.7469 193.002C34.1469 192.702 34.5469 192.402 34.6469 192.002C35.0469 190.902 33.8469 189.902 32.8469 189.502C30.4469 188.602 27.7469 188.602 25.4469 189.702C23.1469 190.702 21.4469 192.602 19.4469 194.102C17.4469 195.602 15.0469 196.902 12.6469 196.402C10.3469 195.902 8.44691 194.002 7.24691 191.902C5.44691 188.902 7.24691 182.702 12.4469 182.602C15.3469 182.502 18.2469 182.602 21.1469 182.602C23.0469 182.602 25.4469 182.102 25.7469 180.202C25.9469 178.702 24.3469 177.602 22.9469 177.002C17.4469 174.702 11.1469 175.602 5.24691 174.802C-3.85309 173.602 -0.453095 158.902 10.3469 159.102C13.1469 159.102 15.9469 159.902 18.4469 161.202C21.3469 162.702 23.8469 165.102 27.0469 165.902C28.1469 166.202 29.4469 166.302 30.5469 165.902C31.6469 165.402 32.4469 164.202 32.1469 163.002C31.8469 161.802 30.6469 161.202 29.6469 160.502C26.8469 158.402 25.6469 154.502 25.9469 151.002C26.1469 148.902 26.8469 146.702 28.6469 145.802C30.8469 144.602 33.6469 145.802 35.2469 147.702C36.9469 149.502 37.7469 151.902 39.0469 154.002C40.3469 156.102 42.3469 158.102 44.8469 158.202C45.2469 158.202 45.6469 158.202 46.0469 157.902C46.3469 157.702 46.4469 157.402 46.6469 157.102C47.5469 154.902 46.7469 152.402 46.4469 150.002C46.1469 147.602 46.9469 144.702 49.2469 144.102C51.1469 143.602 53.0469 145.002 53.9469 146.802C54.8469 148.502 55.1469 150.502 55.9469 152.302C58.1469 157.802 64.9469 160.902 70.5469 159.102C72.1469 158.602 73.6469 157.702 75.2469 157.402C77.9469 156.902 80.8469 158.002 83.0469 159.702C85.2469 161.502 86.8469 163.802 88.3469 166.202C92.1469 172.302 95.5469 179.702 93.0469 186.502" fill="#4DC591"/>
<g opacity="0.41">
<path opacity="0.41" d="M21.947 177.745C22.247 177.645 22.547 177.645 22.847 177.545C22.547 177.645 22.247 177.645 21.947 177.745C21.947 177.745 21.947 177.645 21.947 177.745Z" fill="#444472"/>
<path opacity="0.41" d="M25.6469 176.745C24.7469 177.045 23.8469 177.345 22.8469 177.545C23.8469 177.445 24.7469 177.145 25.6469 176.745Z" fill="#444472"/>
</g>
<path d="M126.047 203.913C126.928 198.25 131.101 193.898 133.392 188.705C153.459 143.321 167.611 177.789 169.441 150.001C170.963 127.308 201.358 121.272 202.224 131.353C202.835 139.327 211.295 145.068 216.719 139.282C223.596 131.966 223.272 119.896 229.58 112.009C233.237 107.505 239.114 104.869 244.708 105.188C249.803 105.496 254.749 108.102 259.865 107.41C268.973 106.163 275.267 95.214 284.405 95.3879C285.186 95.3644 285.984 95.4814 286.613 95.9748C287.934 96.8831 288.234 98.7699 288.298 100.472C288.607 104.779 288.782 109.744 285.832 113.022C283.268 115.968 278.933 116.637 276.449 119.645C273.886 122.591 273.931 127.073 274.469 130.925C275.086 134.839 276.203 138.764 275.461 142.629C274.345 148.106 269.514 152.325 264.22 153.893C259.004 155.523 253.375 154.923 248.072 154.07C246.696 153.881 245.241 153.63 243.775 153.879C239.255 154.783 237.241 161.082 239.313 165.247C240.079 166.864 241.389 168.272 241.892 170.063C243.234 174.672 238.735 179.278 234.181 179.901C229.565 180.604 225.126 178.649 220.693 177.335C216.259 176.02 211.175 175.212 207.298 177.891C202.365 181.267 201.672 188.474 198.364 193.505C194.827 198.991 188.248 201.712 181.896 202.197C175.623 202.744 169.286 201.59 163.001 200.856C149.963 199.659 138.459 198.775 126.047 203.913Z" fill="#4DC591"/>
<path d="M112.005 200.853C121.489 190.732 131.073 180.611 138.471 168.872C150.327 150.069 156.014 127.515 154.698 105.304C154.518 102.902 153.643 99.7948 151.243 99.7749C150.143 99.7658 149.239 100.358 148.433 101.052C146.319 102.734 144.403 104.618 142.786 106.705C141.673 108.196 140.259 109.884 138.461 109.669C137.162 109.559 136.271 108.451 135.68 107.346C132.724 102.022 134.48 95.2359 137.723 90.1626C140.965 85.0893 145.599 80.9275 148.842 75.7542C152.085 70.5809 153.742 63.7944 150.685 58.5689C149.896 57.2623 148.706 56.0524 147.206 56.04C146.506 56.0342 145.903 56.3292 145.301 56.6242C138.674 59.8695 136.207 67.9493 133.051 74.6234C132.745 75.3209 132.239 76.1167 131.536 76.4109C130.433 76.8018 129.341 75.8927 128.648 74.9869C125.091 69.7573 128.248 62.8832 130.896 57.1049C134.461 49.3342 137.134 40.456 134.702 32.2356C134.117 30.4307 133.232 28.6233 131.641 27.6101C127.859 25.3787 123.026 29.3388 122.19 33.632C121.355 37.9252 122.718 42.3367 122.782 46.7374C122.773 47.8373 122.664 48.9364 121.857 49.7298C120.547 50.919 118.254 50.1 117.366 48.5926C116.479 47.0852 116.594 45.186 116.809 43.3878C118.025 29.3974 118.753 14.0029 110.044 2.93034C109.153 1.82292 108.163 0.714678 106.766 0.303094C104.072 -0.419248 101.454 1.65914 100.135 4.04829C96.5826 10.3191 98.2171 18.2329 101.062 24.8567C103.908 31.4805 107.956 37.7142 109.298 44.7256C109.777 47.2296 109.855 49.9304 108.836 52.222C107.817 54.5137 105.401 56.3937 102.903 56.173C99.6056 55.8457 97.533 52.5284 96.1579 49.5169C94.9778 47.107 93.7977 44.6972 92.6168 42.3873C91.9284 40.9816 90.9417 39.3733 89.3418 39.3601C87.3427 39.2435 86.3212 41.8352 86.3038 43.9351C86.2549 49.8349 89.5092 55.362 93.6743 59.5967C97.7393 63.8305 102.712 67.1718 107.28 71.0098C108.472 72.0197 109.663 73.1296 110.351 74.5353C111.236 76.3427 111.118 78.5418 110.701 80.5385C109.669 84.43 107.141 87.8092 103.625 89.7801C101.012 91.2585 98.0066 91.9337 95.6909 93.8146C91.7653 96.8821 90.7148 102.974 93.48 107.197C95.8492 110.916 100.336 112.554 104.63 113.289C108.924 114.025 113.425 113.962 117.614 115.297C119.509 115.913 121.402 116.728 122.489 118.337C124.07 120.651 123.644 123.747 122.523 126.238C120.792 130.024 117.665 133.198 113.852 134.766C110.34 136.237 106.438 136.505 102.828 137.675C99.2188 138.745 95.4991 141.115 94.5684 144.807C93.2238 150.196 98.3846 154.939 103.364 157.48C108.344 159.922 114.227 161.97 116.585 166.99C118.257 170.404 117.723 174.5 116.993 178.194C115.426 186.281 112.861 194.06 109.399 201.532" fill="#4DC591"/>
<path d="M200.602 108.6C204.902 105.3 208.602 101 211.102 96C213.602 90.9 214.602 85.1 215.402 79.3C216.202 72.9 216.802 66.5 217.002 60C207.402 61.4 197.902 63.3 188.902 67C179.902 70.7 171.202 76 165.102 84C154.602 97.8 155.002 116 155.002 116C155.002 116 177.302 126.2 200.602 108.6Z" fill="#4DC591"/>
<g opacity="0.41">
<path opacity="0.41" d="M178.775 131.446C178.675 131.846 178.575 132.146 178.475 132.546C178.575 132.146 178.675 131.846 178.675 131.446C178.675 131.346 178.775 131.446 178.775 131.446Z" fill="#444472"/>
<path opacity="0.41" d="M177.275 135.946C177.675 134.846 178.075 133.746 178.475 132.546C178.175 133.746 177.775 134.846 177.275 135.946Z" fill="#444472"/>
<path opacity="0.47" d="M154.775 185.546C163.175 196.846 171.975 208.346 184.775 214.146C182.475 206.046 180.375 197.846 178.675 189.546C169.875 181.446 163.175 171.446 156.575 161.446C156.475 161.346 156.675 161.246 156.675 161.346C163.375 170.646 170.175 179.746 178.275 187.746C175.775 175.146 174.075 162.346 173.475 149.446C173.375 149.446 173.275 149.446 173.275 149.346C170.375 143.846 168.375 137.946 167.575 131.746C167.575 131.646 167.675 131.646 167.675 131.746C168.675 137.746 170.575 143.346 173.475 148.646C173.375 146.546 173.375 144.346 173.275 142.246C173.175 142.146 173.075 142.046 173.175 141.846L173.275 141.746C173.275 138.146 173.275 134.546 173.475 130.846C173.475 130.746 173.575 130.846 173.575 130.846C173.475 134.346 173.475 137.946 173.575 141.446C174.975 139.946 176.375 138.046 177.275 136.046C176.375 138.246 175.275 140.246 173.575 142.046C173.875 153.446 175.175 164.846 177.075 176.046C187.375 169.246 190.675 156.646 196.375 146.146C196.375 146.046 196.475 146.146 196.475 146.146C190.875 156.846 187.875 169.946 177.475 176.746C177.375 176.846 177.275 176.846 177.175 176.846C177.875 180.946 178.675 184.946 179.575 189.046C179.775 189.246 179.775 189.446 179.675 189.646C180.475 193.146 181.275 196.546 182.175 199.946C192.175 192.346 200.475 182.946 206.275 171.346C206.275 171.246 206.375 171.346 206.375 171.346C200.975 183.246 192.975 193.446 182.375 200.546C184.175 207.646 186.175 214.646 188.375 221.646C199.275 214.946 209.675 206.746 212.975 193.246C212.975 193.146 213.075 193.246 213.075 193.246C209.975 206.946 199.575 215.446 188.675 222.446C189.375 224.646 190.075 226.746 190.775 228.946C191.075 229.846 189.775 230.346 189.475 229.446C187.875 224.646 186.475 219.846 185.075 215.046C171.575 209.446 162.975 197.646 154.675 185.646C154.575 185.546 154.675 185.446 154.775 185.546Z" fill="#444472"/>
</g>
<path d="M160.272 71.6226L92.304 220.541L95.124 221.828L163.092 72.9097L160.272 71.6226Z" fill="#00664F"/>
<path d="M91.7749 225.346C89.4749 224.346 88.4749 221.546 89.4749 219.246C90.4749 216.946 93.2749 215.946 95.5749 216.946C134.375 234.646 180.275 217.546 197.975 178.746C215.675 139.946 198.575 94.0463 159.775 76.3463C157.475 75.3463 156.475 72.5463 157.475 70.2463C158.475 67.9463 161.275 66.9463 163.575 67.9463C206.875 87.7463 226.075 139.046 206.275 182.446C186.475 226.046 135.175 245.146 91.7749 225.346Z" fill="#00664F"/>
<path d="M127.675 219.146C167.66 219.146 200.075 186.732 200.075 146.746C200.075 106.761 167.66 74.3463 127.675 74.3463C87.6895 74.3463 55.2749 106.761 55.2749 146.746C55.2749 186.732 87.6895 219.146 127.675 219.146Z" fill="#B0DDC9"/>
<path d="M193.575 176.846C191.075 182.346 187.975 187.346 184.375 191.946C175.775 195.546 166.175 196.746 156.975 195.146C155.775 194.946 154.575 194.646 153.675 193.846C150.975 191.446 153.275 187.146 153.275 183.546C153.275 180.546 151.475 177.846 149.775 175.346C145.975 169.746 142.175 162.846 144.475 156.346C146.775 149.846 154.475 146.346 156.475 139.746C158.275 133.446 154.175 126.946 154.075 120.346C153.975 115.246 156.475 110.346 159.975 106.746C163.575 103.146 168.175 100.746 172.975 99.0463C175.475 98.1463 178.275 97.5463 180.975 97.5463C200.075 118.446 206.075 149.546 193.575 176.846ZM105.675 214.346C109.375 212.546 112.475 209.146 113.175 205.146C113.875 200.746 111.675 196.446 108.975 192.946C106.175 189.446 102.875 186.446 100.575 182.646C99.5749 181.046 98.8749 179.246 98.8749 177.346C98.9749 172.146 104.575 168.546 105.175 163.446C105.775 158.946 102.175 154.846 98.1749 152.846C94.0749 150.846 89.4749 150.346 85.0749 149.146C80.6749 147.946 76.2749 145.546 74.4749 141.346C72.2749 136.046 75.0749 129.746 72.0749 124.746C70.1749 121.546 65.1749 119.446 60.8749 118.746C45.7749 154.646 61.8749 196.346 97.5749 212.646C99.6749 213.546 101.675 214.446 103.775 215.146C104.475 214.946 105.075 214.646 105.675 214.346ZM85.5749 87.8463C85.7749 88.6463 86.0749 89.4463 86.4749 90.1463C89.9749 97.5463 97.4749 103.146 98.5749 111.246C98.8749 113.446 98.7749 115.946 100.175 117.646C100.875 118.546 101.975 119.046 103.075 119.546C112.175 123.346 123.575 120.646 129.875 113.046C135.975 105.646 137.075 95.3463 141.875 87.0463C143.275 84.6463 144.975 82.3463 144.975 79.5463C144.975 78.3463 144.575 77.2463 143.975 76.2463C123.375 71.4463 102.175 75.9463 85.5749 87.8463Z" fill="#2EA889"/>
<path d="M134.775 231.446H120.575V265.246H134.775V231.446Z" fill="#00664F"/>
<path d="M183.775 277.346H71.5749C67.8749 277.346 64.9749 274.346 64.9749 270.746C64.9749 267.046 67.9749 264.146 71.5749 264.146H183.675C187.375 264.146 190.275 267.146 190.275 270.746C190.375 274.346 187.375 277.346 183.775 277.346Z" fill="#00664F"/>
<path d="M337.575 205.946C344.675 205.946 350.475 200.146 350.475 193.046C350.475 185.946 344.675 180.146 337.575 180.146H186.575C191.575 188.746 191.575 197.346 186.575 205.946H337.575Z" fill="#EDEDED"/>
<path d="M337.575 205.946C344.875 205.946 350.775 199.846 350.475 192.446C350.175 185.546 344.175 180.246 337.275 180.246H184.575C183.475 180.246 182.575 179.346 182.575 178.246C182.575 177.146 183.475 176.246 184.575 176.246H337.575C346.875 176.246 354.375 183.746 354.375 193.046C354.375 202.346 346.875 209.846 337.575 209.846H184.575C183.475 209.846 182.575 208.946 182.575 207.846C182.575 206.746 183.475 205.846 184.575 205.846H337.575V205.946Z" fill="#FFC278"/>
<path d="M345.075 182.646L332.875 182.746L309.975 182.946L264.075 183.046L218.175 182.946L195.275 182.846L187.875 182.746C187.775 182.646 187.775 182.546 187.675 182.446L195.175 182.346L218.075 182.246L263.975 182.146L309.875 182.246L332.775 182.346L344.575 182.446C344.875 182.446 344.975 182.546 345.075 182.646ZM348.075 185.646C348.075 185.546 347.975 185.546 347.975 185.446L332.975 185.246L310.075 185.146L264.175 185.046L218.275 185.146L195.375 185.246L189.075 185.346C189.075 185.446 189.175 185.546 189.175 185.746L195.375 185.846L218.275 185.946L264.175 186.046L309.975 185.946L332.875 185.846L348.075 185.646ZM349.675 188.646C349.675 188.646 349.675 188.546 349.575 188.546L332.875 188.346L309.975 188.246L264.075 188.146L218.175 188.246L195.275 188.346L189.875 188.446C189.875 188.546 189.875 188.746 189.975 188.846L195.375 188.946L218.275 189.046L264.175 189.146L309.975 188.946L332.875 188.846L349.675 188.646ZM187.675 203.846L195.175 203.946L218.075 204.046L263.975 204.146L309.875 204.046L332.775 203.946L344.575 203.846C344.675 203.746 344.775 203.646 344.875 203.646L332.675 203.546L309.775 203.446L263.875 203.346L217.975 203.446L195.075 203.546L187.675 203.646C187.775 203.546 187.775 203.746 187.675 203.846ZM347.975 200.746C347.975 200.646 348.075 200.646 348.075 200.546L332.975 200.346L310.075 200.246L264.175 200.146L218.275 200.246L195.375 200.346L189.175 200.446C189.175 200.546 189.075 200.646 189.075 200.846L195.375 200.946L218.275 201.046L264.175 201.146L310.075 201.046L332.975 200.946L347.975 200.746ZM349.575 197.646C349.575 197.646 349.575 197.546 349.675 197.546L332.975 197.346L310.075 197.246L264.175 197.146L218.275 197.246L195.375 197.346L189.975 197.446C189.975 197.546 189.975 197.746 189.875 197.846L195.275 197.946L218.175 198.046L264.075 198.146L309.975 198.046L332.875 197.946L349.575 197.646ZM350.375 194.646V194.546L332.875 194.346L309.975 194.246L264.075 194.146L218.175 194.246L195.275 194.346L190.275 194.446C190.275 194.546 190.275 194.746 190.275 194.846L195.275 194.946L218.175 195.046L264.075 195.146L309.975 194.946L332.875 194.846L350.375 194.646ZM350.375 191.646V191.546L332.975 191.346L310.075 191.246L264.175 191.146L218.275 191.246L195.375 191.346L190.375 191.446C190.375 191.546 190.375 191.746 190.375 191.846L195.375 191.946L218.275 192.046L264.175 192.146L309.975 191.946L332.875 191.846L350.375 191.646Z" fill="#E1E3EF"/>
<path d="M202.875 204.846L209.475 201.046L216.075 204.846V188.246H202.875V204.846Z" fill="#FFC278"/>
<path d="M199.475 239.646C192.375 239.646 186.575 233.846 186.575 226.746C186.575 219.646 192.375 213.846 199.475 213.846H350.475C345.475 222.446 345.475 231.046 350.475 239.646H199.475Z" fill="#EDEDED"/>
<path d="M199.475 239.646C192.175 239.646 186.275 233.546 186.575 226.146C186.875 219.246 192.875 213.946 199.775 213.946H352.375C353.475 213.946 354.375 213.046 354.375 211.946C354.375 210.846 353.475 209.946 352.375 209.946H199.375C190.075 209.946 182.575 217.446 182.575 226.746C182.575 236.046 190.075 243.546 199.375 243.546H352.375C353.475 243.546 354.375 242.646 354.375 241.546C354.375 240.446 353.475 239.546 352.375 239.546H199.475V239.646Z" fill="#FF7648"/>
<path d="M192.275 216.046L204.075 215.946L226.975 215.846L272.875 215.746L318.775 215.846L341.675 215.946L349.175 216.046C349.075 216.146 349.075 216.246 348.975 216.346L341.575 216.446L318.675 216.546L272.775 216.646L226.875 216.546L203.975 216.446L191.775 216.346C192.075 216.246 192.175 216.146 192.275 216.046ZM204.075 219.446L226.975 219.546L272.875 219.646L318.775 219.546L341.675 219.446L347.875 219.346C347.875 219.246 347.975 219.146 347.975 218.946L341.675 218.846L318.775 218.746L272.875 218.646L226.975 218.746L204.075 218.846L189.075 219.046C189.075 219.146 188.975 219.146 188.975 219.246L204.075 219.446ZM204.075 222.446L226.975 222.546L272.875 222.646L318.775 222.546L341.675 222.446L347.075 222.346C347.075 222.246 347.075 222.046 347.175 221.946L341.775 221.846L318.875 221.746L272.975 221.646L227.075 221.746L204.175 221.846L187.475 222.046C187.475 222.046 187.475 222.146 187.375 222.146L204.075 222.446ZM349.175 237.146L341.775 237.046L318.875 236.946L272.975 236.846L227.075 236.946L204.175 237.046L191.975 237.146C192.075 237.246 192.175 237.346 192.275 237.346L204.075 237.446L226.975 237.546L272.875 237.646L318.775 237.546L341.675 237.446L349.175 237.346C349.275 237.446 349.275 237.246 349.175 237.146ZM204.075 234.546L226.975 234.646L272.875 234.746L318.775 234.646L341.675 234.546L347.975 234.446C347.975 234.346 347.875 234.246 347.875 234.046L341.675 233.946L318.775 233.846L272.875 233.746L226.975 233.846L204.075 233.946L188.975 234.146C188.975 234.246 189.075 234.246 189.075 234.346L204.075 234.546ZM204.075 231.546L226.975 231.646L272.875 231.746L318.775 231.646L341.675 231.546L347.075 231.446C347.075 231.346 347.075 231.146 346.975 231.046L341.575 230.946L318.675 230.846L272.775 230.746L226.875 230.846L203.975 230.946L187.275 231.146C187.275 231.146 187.275 231.246 187.375 231.246L204.075 231.546ZM204.075 228.546L226.975 228.646L272.875 228.746L318.775 228.646L341.675 228.546L346.675 228.446C346.675 228.346 346.675 228.146 346.675 228.046L341.675 227.946L318.775 227.846L272.875 227.746L226.975 227.846L204.075 227.946L186.575 228.146V228.246L204.075 228.546ZM204.075 225.546L226.975 225.646L272.875 225.746L318.775 225.646L341.675 225.546L346.675 225.446C346.675 225.346 346.675 225.146 346.675 225.046L341.675 224.946L318.775 224.846L272.875 224.746L226.975 224.846L204.075 224.946L186.675 225.146V225.246L204.075 225.546Z" fill="#E1E3EF"/>
<path d="M337.575 273.346C344.675 273.346 350.475 267.546 350.475 260.446C350.475 253.346 344.675 247.546 337.575 247.546H186.575C191.575 256.146 191.575 264.746 186.575 273.346H337.575Z" fill="#EDEDED"/>
<path d="M337.575 273.346C344.875 273.346 350.775 267.246 350.475 259.846C350.175 252.946 344.175 247.646 337.275 247.646H184.675C183.575 247.646 182.675 246.746 182.675 245.646C182.675 244.546 183.575 243.646 184.675 243.646H337.675C346.975 243.646 354.475 251.146 354.475 260.446C354.475 269.746 346.975 277.246 337.675 277.246H184.675C183.575 277.246 182.675 276.346 182.675 275.246C182.675 274.146 183.575 273.246 184.675 273.246H337.575V273.346Z" fill="#8F98FF"/>
<path d="M345.075 250.046L332.875 250.146L309.975 250.246L264.075 250.346L218.175 250.246L195.275 250.146L187.875 250.046C187.775 249.946 187.775 249.846 187.675 249.746L195.175 249.646L218.075 249.546L263.975 249.446L309.875 249.546L332.775 249.646L344.575 249.746C344.875 249.846 344.975 249.946 345.075 250.046ZM348.075 253.046C348.075 252.946 347.975 252.946 347.975 252.846L332.975 252.646L310.075 252.546L264.175 252.446L218.275 252.546L195.375 252.646L189.075 252.746C189.075 252.846 189.175 252.946 189.175 253.146L195.375 253.246L218.275 253.346L264.175 253.446L310.075 253.346L332.975 253.246L348.075 253.046ZM349.675 256.046C349.675 256.046 349.675 255.946 349.575 255.946L332.875 255.746L309.975 255.646L264.075 255.546L218.175 255.646L195.275 255.746L189.875 255.846C189.875 255.946 189.875 256.146 189.975 256.246L195.375 256.346L218.275 256.446L264.175 256.546L310.075 256.446L332.975 256.346L349.675 256.046ZM347.975 268.146C347.975 268.046 348.075 268.046 348.075 267.946L332.975 267.746L310.075 267.646L264.175 267.546L218.275 267.646L195.375 267.746L189.175 267.846C189.175 267.946 189.075 268.046 189.075 268.246L195.375 268.346L218.275 268.446L264.175 268.546L310.075 268.446L332.975 268.346L347.975 268.146ZM349.575 265.046C349.575 265.046 349.575 264.946 349.675 264.946L332.975 264.746L310.075 264.646L264.175 264.546L218.275 264.646L195.375 264.746L189.975 264.846C189.975 264.946 189.975 265.146 189.875 265.246L195.275 265.346L218.175 265.446L264.075 265.546L309.975 265.446L332.875 265.346L349.575 265.046ZM350.375 262.046V261.946L332.875 261.746L309.975 261.646L264.075 261.546L218.175 261.646L195.275 261.746L190.275 261.846C190.275 261.946 190.275 262.146 190.275 262.246L195.275 262.346L218.175 262.446L264.075 262.546L309.975 262.446L332.875 262.346L350.375 262.046ZM350.375 259.046V258.946L332.975 258.746L310.075 258.646L264.175 258.546L218.275 258.646L195.375 258.746L190.375 258.846C190.375 258.946 190.375 259.146 190.375 259.246L195.375 259.346L218.275 259.446L264.175 259.546L310.075 259.446L332.975 259.346L350.375 259.046Z" fill="#E1E3EF"/>
<path d="M239.175 272.246L245.775 268.446L252.275 272.246V255.546H239.175V272.246Z" fill="#8F98FF"/>
</svg>
